<?xml version="1.0" standalone="no"?><!DOCTYPE svg PUBLIC "-//W3C//DTD SVG 1.1//EN"
        "http://www.w3.org/Graphics/SVG/1.1/DTD/svg11.dtd">
<svg t="1718784324667" class="icon" viewBox="0 0 1024 1024" version="1.1" xmlns="http://www.w3.org/2000/svg" width="256"
     height="256">
    <path d="M967.7312 897.322667c-212.48-212.48-212.48-558.208 0-770.688l41.728-41.728c9.386667-9.386667 14.592-21.888 14.592-35.2 0-13.269333-5.205333-25.770667-14.592-35.157334-18.773333-18.816-51.498667-18.773333-70.314667 0l-41.770666 41.728c-212.48 212.48-558.250667 212.48-770.688 0L84.957867 14.506667a49.92 49.92 0 0 0-70.357334 0 49.834667 49.834667 0 0 0 0 70.357333l41.728 41.728c212.48 212.48 212.48 558.208 0 770.688l-41.685333 41.728c-9.429333 9.386667-14.592 21.888-14.592 35.2 0 13.226667 5.162667 25.770667 14.549333 35.157333 18.858667 18.901333 51.626667 18.816 70.4 0l41.685334-41.685333c212.48-212.608 558.208-212.48 770.730666 0l41.728 41.685333c9.386667 9.386667 21.888 14.592 35.157334 14.592 13.312 0 25.813333-5.205333 35.157333-14.592 9.386667-9.386667 14.592-21.845333 14.592-35.157333 0-13.354667-5.205333-25.813333-14.592-35.2l-41.685333-41.728z"
          p-id="5015" fill="#000000"></path>
</svg>